<svg aria-hidden="true" style="position: absolute; width: 0; height: 0; overflow: hidden;" version="1.1" xmlns="http://www.w3.org/2000/svg" xmlns:xlink="http://www.w3.org/1999/xlink">
<defs>
<symbol id="icon-menu" viewBox="0 0 28 28">
<title>menu</title>
<path d="M0 4.2h28v2.8h-28v-2.8zM0 12.6h28v2.8h-28v-2.8zM0 21h28v2.8h-28v-2.8z"></path>
</symbol>
<symbol id="icon-pencil" viewBox="0 0 24 28">
<title>pencil</title>
<path d="M5.672 24l1.422-1.422-3.672-3.672-1.422 1.422v1.672h2v2h1.672zM13.844 9.5c0-0.203-0.141-0.344-0.344-0.344-0.094 0-0.187 0.031-0.266 0.109l-8.469 8.469c-0.078 0.078-0.109 0.172-0.109 0.266 0 0.203 0.141 0.344 0.344 0.344 0.094 0 0.187-0.031 0.266-0.109l8.469-8.469c0.078-0.078 0.109-0.172 0.109-0.266zM13 6.5l6.5 6.5-13 13h-6.5v-6.5zM23.672 8c0 0.531-0.219 1.047-0.578 1.406l-2.594 2.594-6.5-6.5 2.594-2.578c0.359-0.375 0.875-0.594 1.406-0.594s1.047 0.219 1.422 0.594l3.672 3.656c0.359 0.375 0.578 0.891 0.578 1.422z"></path>
</symbol>
<symbol id="icon-settings" viewBox="0 0 24 28">
<title>settings</title>
<path d="M16 14c0-2.203-1.797-4-4-4s-4 1.797-4 4 1.797 4 4 4 4-1.797 4-4zM24 12.297v3.469c0 0.234-0.187 0.516-0.438 0.562l-2.891 0.438c-0.172 0.5-0.359 0.969-0.609 1.422 0.531 0.766 1.094 1.453 1.672 2.156 0.094 0.109 0.156 0.25 0.156 0.391s-0.047 0.25-0.141 0.359c-0.375 0.5-2.484 2.797-3.016 2.797-0.141 0-0.281-0.063-0.406-0.141l-2.156-1.687c-0.453 0.234-0.938 0.438-1.422 0.594-0.109 0.953-0.203 1.969-0.453 2.906-0.063 0.25-0.281 0.438-0.562 0.438h-3.469c-0.281 0-0.531-0.203-0.562-0.469l-0.438-2.875c-0.484-0.156-0.953-0.344-1.406-0.578l-2.203 1.672c-0.109 0.094-0.25 0.141-0.391 0.141s-0.281-0.063-0.391-0.172c-0.828-0.75-1.922-1.719-2.578-2.625-0.078-0.109-0.109-0.234-0.109-0.359 0-0.141 0.047-0.25 0.125-0.359 0.531-0.719 1.109-1.406 1.641-2.141-0.266-0.5-0.484-1.016-0.641-1.547l-2.859-0.422c-0.266-0.047-0.453-0.297-0.453-0.562v-3.469c0-0.234 0.187-0.516 0.422-0.562l2.906-0.438c0.156-0.5 0.359-0.969 0.609-1.437-0.531-0.75-1.094-1.453-1.672-2.156-0.094-0.109-0.156-0.234-0.156-0.375s0.063-0.25 0.141-0.359c0.375-0.516 2.484-2.797 3.016-2.797 0.141 0 0.281 0.063 0.406 0.156l2.156 1.672c0.453-0.234 0.938-0.438 1.422-0.594 0.109-0.953 0.203-1.969 0.453-2.906 0.063-0.25 0.281-0.438 0.562-0.438h3.469c0.281 0 0.531 0.203 0.562 0.469l0.438 2.875c0.484 0.156 0.953 0.344 1.406 0.578l2.219-1.672c0.094-0.094 0.234-0.141 0.375-0.141s0.281 0.063 0.391 0.156c0.828 0.766 1.922 1.734 2.578 2.656 0.078 0.094 0.109 0.219 0.109 0.344 0 0.141-0.047 0.25-0.125 0.359-0.531 0.719-1.109 1.406-1.641 2.141 0.266 0.5 0.484 1.016 0.641 1.531l2.859 0.438c0.266 0.047 0.453 0.297 0.453 0.562z"></path>
</symbol>
<symbol id="icon-notifications_off" viewBox="0 0 28 28">
<title>notifications_off</title>
<path d="M21 17.117l-10.445-10.992c0.273-0.109 0.547-0.273 0.82-0.383h0.055l0.328-0.164c0.164-0.055 0.328-0.055 0.492-0.109v-0.82c0-0.984 0.766-1.75 1.75-1.75s1.75 0.766 1.75 1.75v0.82c3.336 0.82 5.25 3.773 5.25 7.383v4.266zM14 25.648c-1.313 0-2.352-0.984-2.352-2.297h4.703c0 1.313-1.039 2.297-2.352 2.297zM9.133 7.164c5.12 5.289 10.263 10.555 15.367 15.859l-1.477 1.477-2.352-2.352h-16.023v-1.148l2.352-2.352v-5.852c0-1.477 0.328-2.844 0.93-3.992l-3.281-3.227 1.477-1.531z"></path>
</symbol>
<symbol id="icon-notifications" viewBox="0 0 28 28">
<title>notifications</title>
<path d="M18.648 19.852v-7c0-2.898-1.75-5.25-4.648-5.25s-4.648 2.352-4.648 5.25v7h9.297zM21 18.648l2.352 2.352v1.148h-18.703v-1.148l2.352-2.352v-5.797c0-3.609 1.914-6.563 5.25-7.383v-0.82c0-0.984 0.766-1.75 1.75-1.75s1.75 0.766 1.75 1.75v0.82c3.336 0.82 5.25 3.828 5.25 7.383v5.797zM14 25.648c-1.258 0-2.352-1.039-2.352-2.297h4.703c0 1.258-1.094 2.297-2.352 2.297z"></path>
</symbol>
<symbol id="icon-gallery" viewBox="0 0 28 28">
<title>gallery</title>
<path d="M11.484 25.375c1.879-3.244 3.732-6.513 5.633-9.734l4.266 7.383c-2.023 1.641-4.594 2.625-7.383 2.625-0.875 0-1.695-0.109-2.516-0.273zM2.844 17.5h11.32l-4.32 7.383c-3.336-1.258-5.906-3.992-7-7.383zM5.414 6.125c1.969 3.409 3.926 6.829 5.906 10.227h-8.75c-0.164-0.766-0.219-1.531-0.219-2.352 0-3.063 1.148-5.797 3.063-7.875zM25.43 11.648c0.164 0.766 0.219 1.531 0.219 2.352 0 3.063-1.148 5.797-3.063 7.875l-5.578-9.625-0.328-0.602h8.75zM25.156 10.5h-11.32l4.32-7.383c3.336 1.258 5.906 3.992 7 7.383zM10.992 12.25l-0.109 0.109-4.266-7.383c2.023-1.641 4.594-2.625 7.383-2.625 0.875 0 1.695 0.109 2.516 0.273z"></path>
</symbol>
<symbol id="icon-upload" viewBox="0 0 30 28">
<title>upload</title>
<path d="M20 13.5c0-0.125-0.047-0.266-0.141-0.359l-5.5-5.5c-0.094-0.094-0.219-0.141-0.359-0.141-0.125 0-0.266 0.047-0.359 0.141l-5.484 5.484c-0.094 0.109-0.156 0.234-0.156 0.375 0 0.281 0.219 0.5 0.5 0.5h3.5v5.5c0 0.266 0.234 0.5 0.5 0.5h3c0.266 0 0.5-0.234 0.5-0.5v-5.5h3.5c0.281 0 0.5-0.234 0.5-0.5zM30 18c0 3.313-2.688 6-6 6h-17c-3.859 0-7-3.141-7-7 0-2.719 1.578-5.187 4.031-6.328-0.016-0.234-0.031-0.453-0.031-0.672 0-4.422 3.578-8 8-8 3.25 0 6.172 1.969 7.406 4.969 0.719-0.625 1.641-0.969 2.594-0.969 2.203 0 4 1.797 4 4 0 0.766-0.219 1.516-0.641 2.156 2.719 0.641 4.641 3.063 4.641 5.844z"></path>
</symbol>
<symbol id="icon-user" viewBox="0 0 24 28">
<title>user</title>
<path d="M18.766 12.25c2.203 0.641 5.234 2.812 5.234 9.922 0 3.219-2.391 5.828-5.328 5.828h-13.344c-2.938 0-5.328-2.609-5.328-5.828 0-7.109 3.031-9.281 5.234-9.922-0.781-1.234-1.234-2.688-1.234-4.25 0-4.406 3.594-8 8-8s8 3.594 8 8c0 1.563-0.453 3.016-1.234 4.25zM12 2c-3.313 0-6 2.688-6 6s2.688 6 6 6 6-2.688 6-6-2.688-6-6-6zM18.672 26c1.828 0 3.328-1.703 3.328-3.828 0-4.922-1.656-8-4.75-8.156-1.406 1.234-3.234 1.984-5.25 1.984s-3.844-0.75-5.25-1.984c-3.094 0.156-4.75 3.234-4.75 8.156 0 2.125 1.5 3.828 3.328 3.828h13.344z"></path>
</symbol>
<symbol id="icon-bookmark" viewBox="0 0 20 28">
<symbol id="icon-dots" viewBox="0 0 28 28">
<title>dots</title>
<path d="M14.001 10.92c-1.701 0-3.081 1.379-3.081 3.080s1.38 3.080 3.081 3.080c1.701 0 3.079-1.379 3.079-3.080s-1.378-3.080-3.079-3.080zM4.201 10.92c-1.701 0-3.081 1.379-3.081 3.080s1.38 3.080 3.081 3.080c1.701 0 3.079-1.38 3.079-3.080s-1.378-3.080-3.079-3.080zM23.801 10.92c-1.701 0-3.081 1.379-3.081 3.080s1.38 3.080 3.081 3.080c1.701 0 3.079-1.379 3.079-3.080s-1.378-3.080-3.079-3.080z"></path>
</symbol>
<symbol id="icon-star" viewBox="0 0 24 24">
<title>star</title>
<path d="M24 9.306l-8.292-1.205-3.708-7.514-3.708 7.514-8.292 1.205 6 5.849-1.416 8.258 7.416-3.899 7.416 3.899-1.416-8.258 6-5.849zM12 17.66l-5.237 2.753 1-5.832-4.237-4.13 5.856-0.851 2.619-5.306 2.619 5.306 5.856 0.851-4.237 4.13 1 5.832-5.237-2.753z"></path>
</symbol>
<symbol id="icon-starFull" viewBox="0 0 24 24">
<title>starFull</title>
<path d="M24 9.306l-8.292-1.205-3.708-7.514-3.708 7.514-8.292 1.205 6 5.849-1.416 8.258 7.416-3.899 7.416 3.899-1.416-8.258 6-5.849z"></path>
</symbol>
<symbol id="icon-comment" viewBox="0 0 28 28">
<title>comment</title>
<path d="M14 6c-6.5 0-12 3.656-12 8 0 2.328 1.563 4.547 4.266 6.078l1.359 0.781-0.422 1.5c-0.297 1.109-0.688 1.969-1.094 2.688 1.578-0.656 3.016-1.547 4.297-2.672l0.672-0.594 0.891 0.094c0.672 0.078 1.359 0.125 2.031 0.125 6.5 0 12-3.656 12-8s-5.5-8-12-8zM28 14c0 5.531-6.266 10-14 10-0.766 0-1.531-0.047-2.266-0.125-2.047 1.813-4.484 3.094-7.187 3.781-0.562 0.156-1.172 0.266-1.781 0.344h-0.078c-0.313 0-0.594-0.25-0.672-0.594v-0.016c-0.078-0.391 0.187-0.625 0.422-0.906 0.984-1.109 2.109-2.047 2.844-4.656-3.219-1.828-5.281-4.656-5.281-7.828 0-5.531 6.266-10 14-10v0c7.734 0 14 4.469 14 10z"></path>
</symbol>
<symbol id="icon-heart" viewBox="0 0 28 28">
<title>heart</title>
<path d="M26 9.312c0-4.391-2.969-5.313-5.469-5.313-2.328 0-4.953 2.516-5.766 3.484-0.375 0.453-1.156 0.453-1.531 0-0.812-0.969-3.437-3.484-5.766-3.484-2.5 0-5.469 0.922-5.469 5.313 0 2.859 2.891 5.516 2.922 5.547l9.078 8.75 9.063-8.734c0.047-0.047 2.938-2.703 2.938-5.563zM28 9.312c0 3.75-3.437 6.891-3.578 7.031l-9.734 9.375c-0.187 0.187-0.438 0.281-0.688 0.281s-0.5-0.094-0.688-0.281l-9.75-9.406c-0.125-0.109-3.563-3.25-3.563-7 0-4.578 2.797-7.313 7.469-7.313 2.734 0 5.297 2.156 6.531 3.375 1.234-1.219 3.797-3.375 6.531-3.375 4.672 0 7.469 2.734 7.469 7.313z"></path>
</symbol>
<symbol id="icon-heartFull" viewBox="0 0 28 28">
<title>heartFull</title>
<path d="M14 26c-0.25 0-0.5-0.094-0.688-0.281l-9.75-9.406c-0.125-0.109-3.563-3.25-3.563-7 0-4.578 2.797-7.313 7.469-7.313 2.734 0 5.297 2.156 6.531 3.375 1.234-1.219 3.797-3.375 6.531-3.375 4.672 0 7.469 2.734 7.469 7.313 0 3.75-3.437 6.891-3.578 7.031l-9.734 9.375c-0.187 0.187-0.438 0.281-0.688 0.281z"></path>
</symbol>
<symbol id="icon-send" viewBox="0 0 28 28">
<title>send</title>
<path d="M27.563 0.172c0.328 0.234 0.484 0.609 0.422 1l-4 24c-0.047 0.297-0.234 0.547-0.5 0.703-0.141 0.078-0.313 0.125-0.484 0.125-0.125 0-0.25-0.031-0.375-0.078l-7.078-2.891-3.781 4.609c-0.187 0.234-0.469 0.359-0.766 0.359-0.109 0-0.234-0.016-0.344-0.063-0.391-0.141-0.656-0.516-0.656-0.938v-5.453l13.5-16.547-16.703 14.453-6.172-2.531c-0.359-0.141-0.594-0.469-0.625-0.859-0.016-0.375 0.172-0.734 0.5-0.922l26-15c0.156-0.094 0.328-0.141 0.5-0.141 0.203 0 0.406 0.063 0.562 0.172z"></path>
</symbol>
<symbol id="icon-shutter" viewBox="0 0 28 28">
<title>shutter</title>
<path d="M11.484 25.375c1.879-3.244 3.732-6.513 5.633-9.734l4.266 7.383c-2.023 1.641-4.594 2.625-7.383 2.625-0.875 0-1.695-0.109-2.516-0.273zM2.844 17.5h11.32l-4.32 7.383c-3.336-1.258-5.906-3.992-7-7.383zM5.414 6.125c1.969 3.409 3.926 6.829 5.906 10.227h-8.75c-0.164-0.766-0.219-1.531-0.219-2.352 0-3.063 1.148-5.797 3.063-7.875zM25.43 11.648c0.164 0.766 0.219 1.531 0.219 2.352 0 3.063-1.148 5.797-3.063 7.875l-5.578-9.625-0.328-0.602h8.75zM25.156 10.5h-11.32l4.32-7.383c3.336 1.258 5.906 3.992 7 7.383zM10.992 12.25l-0.109 0.109-4.266-7.383c2.023-1.641 4.594-2.625 7.383-2.625 0.875 0 1.695 0.109 2.516 0.273z"></path>
</symbol>
<symbol id="icon-globe" viewBox="0 0 28 28">
<title>globe</title>
<path d="M13.563 0c-7.491 0-13.563 6.072-13.563 13.563s6.072 13.563 13.563 13.563 13.563-6.072 13.563-13.563-6.072-13.563-13.563-13.563zM25.353 13.125h-5.247c-0.048-1.938-0.393-3.79-1.005-5.485 1.181-0.493 2.273-1.148 3.269-1.922 1.77 1.987 2.877 4.567 2.982 7.407zM13.079 25.351c-1.454-1.211-2.674-2.783-3.566-4.61 1.145-0.358 2.359-0.554 3.613-0.594v5.205c-0.016 0-0.031-0.001-0.046-0.002zM14.045 1.774c1.65 1.374 2.997 3.214 3.908 5.36-1.248 0.426-2.573 0.674-3.953 0.717v-6.080c0.017 0.001 0.031 0.002 0.045 0.003zM15.502 1.923c2.415 0.402 4.582 1.53 6.269 3.162-0.916 0.703-1.917 1.298-3 1.748-0.796-1.887-1.914-3.556-3.269-4.91zM13.125 1.772v6.080c-1.38-0.045-2.706-0.291-3.953-0.717 0.911-2.146 2.258-3.987 3.908-5.36 0.016-0.001 0.030-0.002 0.046-0.003zM8.353 6.835c-1.081-0.451-2.083-1.046-2.999-1.748 1.686-1.633 3.854-2.761 6.268-3.162-1.356 1.354-2.473 3.022-3.27 4.91zM8.842 7.942c1.349 0.468 2.787 0.741 4.283 0.787v4.397h-5.232c0.047-1.832 0.372-3.583 0.948-5.184zM13.125 14v5.272c-1.38 0.042-2.714 0.268-3.972 0.673-0.758-1.804-1.205-3.814-1.26-5.945h5.232zM11.623 25.202c-2.164-0.36-4.129-1.302-5.727-2.671 0.862-0.598 1.794-1.103 2.79-1.488 0.763 1.582 1.761 2.986 2.937 4.158zM14 25.353v-5.205c1.253 0.040 2.468 0.236 3.613 0.594-0.893 1.826-2.112 3.399-3.567 4.61-0.015 0-0.031 0.001-0.046 0.002zM18.44 21.044c0.995 0.384 1.926 0.891 2.79 1.488-1.598 1.368-3.563 2.311-5.727 2.671 1.176-1.172 2.174-2.576 2.937-4.158zM17.972 19.945c-1.258-0.405-2.593-0.631-3.972-0.673v-5.272h5.232c-0.055 2.131-0.503 4.14-1.26 5.945zM14 13.125v-4.397c1.495-0.046 2.933-0.318 4.283-0.786 0.576 1.6 0.9 3.351 0.949 5.184h-5.232zM4.755 5.718c0.996 0.774 2.088 1.43 3.268 1.922-0.612 1.695-0.956 3.546-1.005 5.485h-5.247c0.105-2.839 1.212-5.42 2.983-7.407zM1.772 14h5.247c0.054 2.236 0.521 4.347 1.315 6.245-1.109 0.432-2.142 1.008-3.096 1.69-2.054-2.045-3.351-4.84-3.466-7.934zM21.887 21.934c-0.954-0.681-1.987-1.257-3.097-1.69 0.794-1.898 1.261-4.009 1.316-6.245h5.247c-0.115 3.095-1.412 5.89-3.466 7.934z"></path>
</symbol>
<symbol id="icon-location" viewBox="0 0 28 28">
<title>location</title>
<path d="M14.002 15.528c2.895 0 5.25-2.356 5.25-5.25s-2.355-5.25-5.25-5.25c-2.895 0-5.25 2.355-5.25 5.25s2.355 5.25 5.25 5.25zM14.002 5.903c2.413 0 4.375 1.962 4.375 4.375s-1.962 4.375-4.375 4.375c-2.413 0-4.375-1.962-4.375-4.375s1.962-4.375 4.375-4.375zM14 0c-5.791 0-10.5 4.651-10.5 10.501 0 6.125 5.251 12.391 9.079 16.795 0.014 0.017 0.628 0.704 1.388 0.704 0.002 0 0.064 0 0.067 0 0.759 0 1.374-0.687 1.388-0.704 3.83-4.404 9.080-10.669 9.080-16.795 0-5.849-4.71-10.501-10.502-10.501zM14.102 26.148c-0.018 0.018-0.072 0.056-0.118 0.086-0.009-0.024-0.073-0.075-0.113-0.116-3.207-3.69-8.621-9.917-8.621-15.616 0-4.825 3.926-8.751 8.75-8.751 4.826 0 8.752 3.926 8.752 8.752 0 5.698-5.414 11.925-8.649 15.646z"></path>
</symbol>
<symbol id="icon-search" viewBox="0 0 28 28">
<title>search</title>
<path d="M16.999 17.874c-1.216 0.867-2.704 1.376-4.311 1.376-4.108 0-7.438-3.33-7.438-7.438s3.33-7.438 7.438-7.438c4.108 0 7.438 3.33 7.438 7.438 0 1.607-0.51 3.095-1.376 4.311l4.887 4.887c0.481 0.481 0.477 1.252-0 1.729l-0.021 0.021c-0.476 0.476-1.252 0.478-1.729 0l-4.887-4.887zM12.688 17.5c3.141 0 5.688-2.546 5.688-5.688s-2.546-5.688-5.688-5.688c-3.141 0-5.688 2.546-5.688 5.688s2.546 5.688 5.688 5.688v0z"></path>
</symbol>
<symbol id="icon-wifi-off" viewBox="0 0 24 24">
<title>wifi-off</title>
<path d="M23.7 22.3l-16.9-16.9c0 0 0 0 0 0l-5.1-5.1c-0.4-0.4-1-0.4-1.4 0s-0.4 1 0 1.4l4.1 4.1c-1.3 0.7-2.5 1.5-3.6 2.5-0.4 0.4-0.5 1-0.1 1.4 0.2 0.2 0.4 0.3 0.7 0.3 0.2 0 0.5-0.1 0.7-0.3 1.1-1 2.4-1.8 3.8-2.4l2.3 2.3c-1.4 0.5-2.7 1.2-3.9 2.1-0.4 0.4-0.5 1-0.1 1.4 0.2 0.2 0.5 0.4 0.8 0.4 0.2 0 0.5-0.1 0.6-0.2 1.2-1 2.7-1.7 4.2-2.1l2.8 2.8c-1.6-0.1-3.3 0.3-4.6 1.3-0.5 0.3-0.6 0.9-0.2 1.4 0.3 0.4 0.9 0.6 1.4 0.2 1.7-1.2 4.1-1.2 5.8 0 0.2 0.1 0.4 0.2 0.6 0.2 0.1 0 0.1 0 0.2 0l6.6 6.6c0.2 0.2 0.5 0.3 0.7 0.3s0.5-0.1 0.7-0.3c0.3-0.4 0.3-1-0.1-1.4z"></path>
<path d="M15.8 10.6c-0.2 0.5 0 1.1 0.5 1.3 0.7 0.4 1.4 0.8 2.1 1.4 0.2 0.2 0.4 0.2 0.6 0.2 0.3 0 0.6-0.1 0.8-0.4 0.4-0.4 0.3-1.1-0.1-1.4-0.8-0.6-1.6-1.2-2.5-1.6-0.5-0.2-1.1 0-1.4 0.5z"></path>
<path d="M10.8 6c4-0.3 8.1 1 11.1 3.7 0.2 0.2 0.4 0.2 0.7 0.2s0.6-0.1 0.8-0.3c0.4-0.4 0.3-1-0.1-1.4-3.4-3-8-4.6-12.6-4.2-0.6 0-1 0.5-0.9 1.1 0 0.6 0.4 1 1 0.9z"></path>
<path d="M11.3 19.3c-0.2 0.2-0.3 0.4-0.3 0.7s0.1 0.5 0.3 0.7c0.2 0.2 0.4 0.3 0.7 0.3s0.5-0.1 0.7-0.3c0.2-0.2 0.3-0.5 0.3-0.7s-0.1-0.5-0.3-0.7c-0.4-0.4-1-0.4-1.4 0z"></path>
</symbol>
<symbol id="icon-refresh" viewBox="0 0 24 28">
<title>refresh</title>
<path d="M23.609 16.5c0 0.031 0 0.078-0.016 0.109-1.328 5.531-5.891 9.391-11.656 9.391-3.047 0-6-1.203-8.219-3.313l-2.016 2.016c-0.187 0.187-0.438 0.297-0.703 0.297-0.547 0-1-0.453-1-1v-7c0-0.547 0.453-1 1-1h7c0.547 0 1 0.453 1 1 0 0.266-0.109 0.516-0.297 0.703l-2.141 2.141c1.469 1.375 3.422 2.156 5.437 2.156 2.781 0 5.359-1.437 6.813-3.813 0.375-0.609 0.562-1.203 0.828-1.828 0.078-0.219 0.234-0.359 0.469-0.359h3c0.281 0 0.5 0.234 0.5 0.5zM24 4v7c0 0.547-0.453 1-1 1h-7c-0.547 0-1-0.453-1-1 0-0.266 0.109-0.516 0.297-0.703l2.156-2.156c-1.484-1.375-3.437-2.141-5.453-2.141-2.781 0-5.359 1.437-6.813 3.813-0.375 0.609-0.562 1.203-0.828 1.828-0.078 0.219-0.234 0.359-0.469 0.359h-3.109c-0.281 0-0.5-0.234-0.5-0.5v-0.109c1.344-5.547 5.953-9.391 11.719-9.391 3.063 0 6.047 1.219 8.266 3.313l2.031-2.016c0.187-0.187 0.438-0.297 0.703-0.297 0.547 0 1 0.453 1 1z"></path>
</symbol>
<symbol id="icon-return" viewBox="0 0 32 32">
<title>return</title>
<path d="M17.961 11.954v-9.954l14.039 14-14.039 14v-10.042c-7.135 0-14.177 1.242-17.961 7.136 0.394-10.741 8.43-13.298 17.961-15.14z"></path>
</symbol>
<symbol id="icon-exit" viewBox="0 0 32 32">
<title>exit</title>
<path d="M24 20v-4h-10v-4h10v-4l6 6zM22 18v8h-10v6l-12-6v-26h22v10h-2v-8h-16l8 4v18h8v-6z"></path>
</symbol>
<symbol id="icon-user-cirlce" viewBox="0 0 28 28">
<title>user-cirlce</title>
<path d="M23.797 20.922c-0.406-2.922-1.594-5.516-4.25-5.875-1.375 1.5-3.359 2.453-5.547 2.453s-4.172-0.953-5.547-2.453c-2.656 0.359-3.844 2.953-4.25 5.875 2.172 3.063 5.75 5.078 9.797 5.078s7.625-2.016 9.797-5.078zM20 10c0-3.313-2.688-6-6-6s-6 2.688-6 6 2.688 6 6 6 6-2.688 6-6zM28 14c0 7.703-6.25 14-14 14-7.734 0-14-6.281-14-14 0-7.734 6.266-14 14-14s14 6.266 14 14z"></path>
</symbol>
<symbol id="icon-cancel" viewBox="0 0 24 28">
<title>cancel</title>
<path d="M17.953 17.531c0-0.266-0.109-0.516-0.297-0.703l-2.828-2.828 2.828-2.828c0.187-0.187 0.297-0.438 0.297-0.703s-0.109-0.531-0.297-0.719l-1.406-1.406c-0.187-0.187-0.453-0.297-0.719-0.297s-0.516 0.109-0.703 0.297l-2.828 2.828-2.828-2.828c-0.187-0.187-0.438-0.297-0.703-0.297s-0.531 0.109-0.719 0.297l-1.406 1.406c-0.187 0.187-0.297 0.453-0.297 0.719s0.109 0.516 0.297 0.703l2.828 2.828-2.828 2.828c-0.187 0.187-0.297 0.438-0.297 0.703s0.109 0.531 0.297 0.719l1.406 1.406c0.187 0.187 0.453 0.297 0.719 0.297s0.516-0.109 0.703-0.297l2.828-2.828 2.828 2.828c0.187 0.187 0.438 0.297 0.703 0.297s0.531-0.109 0.719-0.297l1.406-1.406c0.187-0.187 0.297-0.453 0.297-0.719zM24 14c0 6.625-5.375 12-12 12s-12-5.375-12-12 5.375-12 12-12 12 5.375 12 12z"></path>
</symbol>
</defs>
</svg>
