<svg aria-hidden="true" style="position: absolute; width: 0; height: 0; overflow: hidden;" version="1.1" xmlns="http://www.w3.org/2000/svg" xmlns:xlink="http://www.w3.org/1999/xlink">
<defs>
<symbol id="icon-menu" viewBox="0 0 28 28">
<title>menu</title>
<path d="M0 4.2h28v2.8h-28v-2.8zM0 12.6h28v2.8h-28v-2.8zM0 21h28v2.8h-28v-2.8z"></path>
</symbol>
<symbol id="icon-home" viewBox="0 0 28 28">
<title>home-outline</title>
<path d="M25.972 12.213c-3.955-3.33-11.137-9.533-11.208-9.596l-0.764-0.657-0.761 0.657c-0.072 0.062-7.258 6.263-11.27 9.623-0.511 0.46-0.803 1.103-0.803 1.76 0 1.288 1.045 2.333 2.333 2.333h1.167v7c0 1.288 1.045 2.333 2.333 2.333h14c1.288 0 2.333-1.045 2.333-2.333v-7h1.167c1.288 0 2.333-1.045 2.333-2.333 0-0.698-0.321-1.354-0.861-1.787zM16.333 23.333h-4.667v-5.833h4.667v5.833zM21 14l0.002 9.333c-0.002 0-3.502 0-3.502 0v-7h-7v7h-3.5v-9.333h-3.501c3.226-2.697 8.534-7.265 10.501-8.96 1.967 1.695 7.273 6.262 10.5 8.961 0 0-3.5 0-3.5-0.001z"></path>
</symbol>
<symbol id="icon-settings" viewBox="0 0 28 28">
<title>settings</title>
<path d="M14 9.333c-2.567 0-4.667 2.1-4.667 4.667s2.1 4.667 4.667 4.667c2.567 0 4.667-2.1 4.667-4.667s-2.1-4.667-4.667-4.667zM14 16.333c-1.283 0-2.333-1.050-2.333-2.333s1.050-2.333 2.333-2.333c1.283 0 2.333 1.050 2.333 2.333s-1.050 2.333-2.333 2.333z"></path>
<path d="M23.683 17.967c0.117-0.233 0.35-0.467 0.817-0.467 1.983 0 3.5-1.517 3.5-3.5s-1.517-3.5-3.5-3.5h-0.233c-0.233 0-0.467-0.117-0.583-0.35 0-0.117 0-0.117-0.117-0.233-0.117-0.233-0.117-0.583 0.233-0.933 1.4-1.4 1.4-3.617 0-4.9v0c0 0 0 0 0 0-0.7-0.7-1.517-1.050-2.45-1.050 0 0 0 0 0 0-0.933 0-1.867 0.35-2.567 1.050-0.233 0.233-0.583 0.233-0.817 0.117-0.233 0-0.467-0.35-0.467-0.7 0-1.983-1.517-3.5-3.5-3.5s-3.5 1.517-3.5 3.5v0.233c0 0.233-0.117 0.467-0.35 0.583-0.117 0-0.117 0-0.233 0.117-0.233 0.117-0.583 0-0.933-0.233-1.4-1.4-3.617-1.4-4.9 0-1.4 1.4-1.4 3.617 0.117 5.017 0.233 0.233 0.233 0.583 0.117 0.933-0.117 0.233-0.467 0.467-0.817 0.467-1.983 0-3.5 1.517-3.5 3.5s1.517 3.5 3.5 3.5h0.233c0.35 0 0.583 0.233 0.7 0.467s0.117 0.583-0.233 0.933c-0.7 0.7-1.050 1.517-1.050 2.45s0.35 1.75 1.050 2.45c0 0 0 0 0 0 1.4 1.4 3.617 1.4 5.017-0.117 0.233-0.233 0.583-0.233 0.933-0.117s0.467 0.35 0.467 0.817c0 1.983 1.517 3.5 3.5 3.5s3.5-1.517 3.5-3.5v-0.233c0-0.35 0.233-0.583 0.467-0.7s0.583-0.117 0.933 0.233c1.4 1.4 3.617 1.4 4.9 0 1.4-1.4 1.4-3.617-0.117-5.017-0.117-0.233-0.233-0.583-0.117-0.817 0 0 0 0 0 0zM21.583 17.033c-0.467 1.167-0.233 2.45 0.7 3.5 0.233 0.233 0.35 0.467 0.35 0.817s-0.117 0.583-0.35 0.817c-0.233 0.233-0.467 0.35-0.817 0.35 0 0 0 0 0 0-0.35 0-0.583-0.117-0.933-0.467-0.933-0.933-2.217-1.167-3.383-0.583-1.167 0.467-1.867 1.633-1.867 2.8v0.233c0 0.7-0.467 1.167-1.167 1.167s-1.167-0.467-1.167-1.167c0 0 0-0.117 0-0.117 0-1.283-0.817-2.333-1.983-2.8-0.35-0.233-0.817-0.233-1.283-0.233-0.817 0-1.633 0.35-2.217 0.933-0.467 0.467-1.167 0.467-1.633 0 0 0 0 0 0 0v0c-0.233-0.233-0.35-0.467-0.35-0.817s0.117-0.583 0.467-0.933c0.933-0.933 1.167-2.217 0.583-3.383-0.467-1.167-1.633-1.867-2.8-1.867h-0.233c-0.7 0-1.167-0.467-1.167-1.167s0.467-1.167 1.167-1.167c0 0 0.117 0 0.117 0 1.283 0 2.333-0.817 2.8-1.983s0.233-2.45-0.7-3.5c-0.467-0.467-0.467-1.167 0-1.633s1.167-0.467 1.75 0.117c0.817 0.817 2.1 1.050 3.15 0.7 0.117 0 0.233 0 0.35-0.117 1.167-0.467 1.867-1.633 1.867-2.8v-0.233c0-0.7 0.467-1.167 1.167-1.167s1.167 0.467 1.167 1.283c0 1.283 0.7 2.333 1.867 2.8s2.45 0.233 3.5-0.7c0.233-0.233 0.467-0.35 0.817-0.35v0c0.35 0 0.583 0.117 0.817 0.35 0 0 0 0 0 0 0.467 0.467 0.467 1.167-0.117 1.75-0.817 0.817-1.050 2.1-0.7 3.15 0 0.117 0 0.233 0.117 0.35 0.467 1.167 1.633 1.867 2.8 1.867h0.233c0.7 0 1.167 0.467 1.167 1.167s-0.467 1.167-1.283 1.167c-1.167 0-2.333 0.7-2.8 1.867z"></path>
</symbol>
<symbol id="icon-mic" viewBox="0 0 28 28">
<title>mic</title>
<path d="M14 18.667c2.567 0 4.667-2.1 4.667-4.667v-9.333c0-2.567-2.1-4.667-4.667-4.667s-4.667 2.1-4.667 4.667v9.333c0 2.567 2.1 4.667 4.667 4.667zM11.667 4.667c0-1.283 1.050-2.333 2.333-2.333s2.333 1.050 2.333 2.333v9.333c0 1.283-1.050 2.333-2.333 2.333s-2.333-1.050-2.333-2.333v-9.333z"></path>
<path d="M22.167 10.5c-0.7 0-1.167 0.467-1.167 1.167v2.333c0 3.85-3.15 7-7 7s-7-3.15-7-7v-2.333c0-0.7-0.467-1.167-1.167-1.167s-1.167 0.467-1.167 1.167v2.333c0 4.783 3.617 8.633 8.167 9.217v2.45h-3.5c-0.7 0-1.167 0.467-1.167 1.167s0.467 1.167 1.167 1.167h9.333c0.7 0 1.167-0.467 1.167-1.167s-0.467-1.167-1.167-1.167h-3.5v-2.45c4.55-0.583 8.167-4.55 8.167-9.217v-2.333c0-0.7-0.467-1.167-1.167-1.167z"></path>
</symbol>
<symbol id="icon-notifications_off" viewBox="0 0 28 28">
<title>notifications_off</title>
<path d="M21 17.117l-10.445-10.992c0.273-0.109 0.547-0.273 0.82-0.383h0.055l0.328-0.164c0.164-0.055 0.328-0.055 0.492-0.109v-0.82c0-0.984 0.766-1.75 1.75-1.75s1.75 0.766 1.75 1.75v0.82c3.336 0.82 5.25 3.773 5.25 7.383v4.266zM14 25.648c-1.313 0-2.352-0.984-2.352-2.297h4.703c0 1.313-1.039 2.297-2.352 2.297zM9.133 7.164c5.12 5.289 10.263 10.555 15.367 15.859l-1.477 1.477-2.352-2.352h-16.023v-1.148l2.352-2.352v-5.852c0-1.477 0.328-2.844 0.93-3.992l-3.281-3.227 1.477-1.531z"></path>
</symbol>
<symbol id="icon-notifications" viewBox="0 0 28 28">
<title>notifications</title>
<path d="M18.648 19.852v-7c0-2.898-1.75-5.25-4.648-5.25s-4.648 2.352-4.648 5.25v7h9.297zM21 18.648l2.352 2.352v1.148h-18.703v-1.148l2.352-2.352v-5.797c0-3.609 1.914-6.563 5.25-7.383v-0.82c0-0.984 0.766-1.75 1.75-1.75s1.75 0.766 1.75 1.75v0.82c3.336 0.82 5.25 3.828 5.25 7.383v5.797zM14 25.648c-1.258 0-2.352-1.039-2.352-2.297h4.703c0 1.258-1.094 2.297-2.352 2.297z"></path>
</symbol>
<symbol id="icon-gallery" viewBox="0 0 28 28">
<title>gallery</title>
<path d="M11.484 25.375c1.879-3.244 3.732-6.513 5.633-9.734l4.266 7.383c-2.023 1.641-4.594 2.625-7.383 2.625-0.875 0-1.695-0.109-2.516-0.273zM2.844 17.5h11.32l-4.32 7.383c-3.336-1.258-5.906-3.992-7-7.383zM5.414 6.125c1.969 3.409 3.926 6.829 5.906 10.227h-8.75c-0.164-0.766-0.219-1.531-0.219-2.352 0-3.063 1.148-5.797 3.063-7.875zM25.43 11.648c0.164 0.766 0.219 1.531 0.219 2.352 0 3.063-1.148 5.797-3.063 7.875l-5.578-9.625-0.328-0.602h8.75zM25.156 10.5h-11.32l4.32-7.383c3.336 1.258 5.906 3.992 7 7.383zM10.992 12.25l-0.109 0.109-4.266-7.383c2.023-1.641 4.594-2.625 7.383-2.625 0.875 0 1.695 0.109 2.516 0.273z"></path>
</symbol>
<symbol id="icon-double-up" viewBox="0 0 18 28">
<title>double-up</title>
<path d="M16.797 20.5c0 0.125-0.063 0.266-0.156 0.359l-0.781 0.781c-0.094 0.094-0.219 0.156-0.359 0.156-0.125 0-0.266-0.063-0.359-0.156l-6.141-6.141-6.141 6.141c-0.094 0.094-0.234 0.156-0.359 0.156s-0.266-0.063-0.359-0.156l-0.781-0.781c-0.094-0.094-0.156-0.234-0.156-0.359s0.063-0.266 0.156-0.359l7.281-7.281c0.094-0.094 0.234-0.156 0.359-0.156s0.266 0.063 0.359 0.156l7.281 7.281c0.094 0.094 0.156 0.234 0.156 0.359zM16.797 14.5c0 0.125-0.063 0.266-0.156 0.359l-0.781 0.781c-0.094 0.094-0.219 0.156-0.359 0.156-0.125 0-0.266-0.063-0.359-0.156l-6.141-6.141-6.141 6.141c-0.094 0.094-0.234 0.156-0.359 0.156s-0.266-0.063-0.359-0.156l-0.781-0.781c-0.094-0.094-0.156-0.234-0.156-0.359s0.063-0.266 0.156-0.359l7.281-7.281c0.094-0.094 0.234-0.156 0.359-0.156s0.266 0.063 0.359 0.156l7.281 7.281c0.094 0.094 0.156 0.234 0.156 0.359z"></path>
</symbol>
<symbol id="icon-user" viewBox="0 0 24 28">
<title>user</title>
<path d="M18.766 12.25c2.203 0.641 5.234 2.812 5.234 9.922 0 3.219-2.391 5.828-5.328 5.828h-13.344c-2.938 0-5.328-2.609-5.328-5.828 0-7.109 3.031-9.281 5.234-9.922-0.781-1.234-1.234-2.688-1.234-4.25 0-4.406 3.594-8 8-8s8 3.594 8 8c0 1.563-0.453 3.016-1.234 4.25zM12 2c-3.313 0-6 2.688-6 6s2.688 6 6 6 6-2.688 6-6-2.688-6-6-6zM18.672 26c1.828 0 3.328-1.703 3.328-3.828 0-4.922-1.656-8-4.75-8.156-1.406 1.234-3.234 1.984-5.25 1.984s-3.844-0.75-5.25-1.984c-3.094 0.156-4.75 3.234-4.75 8.156 0 2.125 1.5 3.828 3.328 3.828h13.344z"></path>
</symbol>
<symbol id="icon-bookmark" viewBox="0 0 20 28">
<title>bookmark</title>
<path d="M18 4h-16v19.406l8-7.672 1.391 1.328 6.609 6.344v-19.406zM18.188 2c0.234 0 0.469 0.047 0.688 0.141 0.688 0.266 1.125 0.906 1.125 1.609v20.141c0 0.703-0.438 1.344-1.125 1.609-0.219 0.094-0.453 0.125-0.688 0.125-0.484 0-0.938-0.172-1.297-0.5l-6.891-6.625-6.891 6.625c-0.359 0.328-0.812 0.516-1.297 0.516-0.234 0-0.469-0.047-0.688-0.141-0.688-0.266-1.125-0.906-1.125-1.609v-20.141c0-0.703 0.438-1.344 1.125-1.609 0.219-0.094 0.453-0.141 0.688-0.141h16.375z"></path>
</symbol>
<symbol id="icon-dots" viewBox="0 0 28 28">
<title>dots</title>
<path d="M14.001 10.92c-1.701 0-3.081 1.379-3.081 3.080s1.38 3.080 3.081 3.080c1.701 0 3.079-1.379 3.079-3.080s-1.378-3.080-3.079-3.080zM4.201 10.92c-1.701 0-3.081 1.379-3.081 3.080s1.38 3.080 3.081 3.080c1.701 0 3.079-1.38 3.079-3.080s-1.378-3.080-3.079-3.080zM23.801 10.92c-1.701 0-3.081 1.379-3.081 3.080s1.38 3.080 3.081 3.080c1.701 0 3.079-1.379 3.079-3.080s-1.378-3.080-3.079-3.080z"></path>
</symbol>
<symbol id="icon-dotsV" viewBox="0 0 20 20">
<title>dotsV</title>
<path d="M10.001 7.8c-1.215 0-2.201 0.985-2.201 2.2s0.986 2.2 2.201 2.2c1.215 0 2.199-0.985 2.199-2.2s-0.984-2.2-2.199-2.2zM10.001 5.2c1.215 0 2.199-0.986 2.199-2.2s-0.984-2.2-2.199-2.2c-1.215 0-2.201 0.985-2.201 2.2s0.986 2.2 2.201 2.2zM10.001 14.8c-1.215 0-2.201 0.985-2.201 2.2s0.986 2.2 2.201 2.2c1.215 0 2.199-0.985 2.199-2.2s-0.984-2.2-2.199-2.2z"></path>
</symbol>
<symbol id="icon-star" viewBox="0 0 24 24">
<title>star</title>
<path d="M24 9.306l-8.292-1.205-3.708-7.514-3.708 7.514-8.292 1.205 6 5.849-1.416 8.258 7.416-3.899 7.416 3.899-1.416-8.258 6-5.849zM12 17.66l-5.237 2.753 1-5.832-4.237-4.13 5.856-0.851 2.619-5.306 2.619 5.306 5.856 0.851-4.237 4.13 1 5.832-5.237-2.753z"></path>
</symbol>
<symbol id="icon-starFull" viewBox="0 0 24 24">
<title>starFull</title>
<path d="M24 9.306l-8.292-1.205-3.708-7.514-3.708 7.514-8.292 1.205 6 5.849-1.416 8.258 7.416-3.899 7.416 3.899-1.416-8.258 6-5.849z"></path>
</symbol>
<symbol id="icon-comment" viewBox="0 0 28 28">
<title>comment</title>
<path d="M14 6c-6.5 0-12 3.656-12 8 0 2.328 1.563 4.547 4.266 6.078l1.359 0.781-0.422 1.5c-0.297 1.109-0.688 1.969-1.094 2.688 1.578-0.656 3.016-1.547 4.297-2.672l0.672-0.594 0.891 0.094c0.672 0.078 1.359 0.125 2.031 0.125 6.5 0 12-3.656 12-8s-5.5-8-12-8zM28 14c0 5.531-6.266 10-14 10-0.766 0-1.531-0.047-2.266-0.125-2.047 1.813-4.484 3.094-7.187 3.781-0.562 0.156-1.172 0.266-1.781 0.344h-0.078c-0.313 0-0.594-0.25-0.672-0.594v-0.016c-0.078-0.391 0.187-0.625 0.422-0.906 0.984-1.109 2.109-2.047 2.844-4.656-3.219-1.828-5.281-4.656-5.281-7.828 0-5.531 6.266-10 14-10v0c7.734 0 14 4.469 14 10z"></path>
</symbol>
<symbol id="icon-heart" viewBox="0 0 28 28">
<title>heart</title>
<path d="M26 9.312c0-4.391-2.969-5.313-5.469-5.313-2.328 0-4.953 2.516-5.766 3.484-0.375 0.453-1.156 0.453-1.531 0-0.812-0.969-3.437-3.484-5.766-3.484-2.5 0-5.469 0.922-5.469 5.313 0 2.859 2.891 5.516 2.922 5.547l9.078 8.75 9.063-8.734c0.047-0.047 2.938-2.703 2.938-5.563zM28 9.312c0 3.75-3.437 6.891-3.578 7.031l-9.734 9.375c-0.187 0.187-0.438 0.281-0.688 0.281s-0.5-0.094-0.688-0.281l-9.75-9.406c-0.125-0.109-3.563-3.25-3.563-7 0-4.578 2.797-7.313 7.469-7.313 2.734 0 5.297 2.156 6.531 3.375 1.234-1.219 3.797-3.375 6.531-3.375 4.672 0 7.469 2.734 7.469 7.313z"></path>
</symbol>
<symbol id="icon-heartFull" viewBox="0 0 28 28">
<title>heartFull</title>
<path d="M14 26c-0.25 0-0.5-0.094-0.688-0.281l-9.75-9.406c-0.125-0.109-3.563-3.25-3.563-7 0-4.578 2.797-7.313 7.469-7.313 2.734 0 5.297 2.156 6.531 3.375 1.234-1.219 3.797-3.375 6.531-3.375 4.672 0 7.469 2.734 7.469 7.313 0 3.75-3.437 6.891-3.578 7.031l-9.734 9.375c-0.187 0.187-0.438 0.281-0.688 0.281z"></path>
</symbol>
<symbol id="icon-send" viewBox="0 0 28 28">
<title>send</title>
<path d="M27.563 0.172c0.328 0.234 0.484 0.609 0.422 1l-4 24c-0.047 0.297-0.234 0.547-0.5 0.703-0.141 0.078-0.313 0.125-0.484 0.125-0.125 0-0.25-0.031-0.375-0.078l-7.078-2.891-3.781 4.609c-0.187 0.234-0.469 0.359-0.766 0.359-0.109 0-0.234-0.016-0.344-0.063-0.391-0.141-0.656-0.516-0.656-0.938v-5.453l13.5-16.547-16.703 14.453-6.172-2.531c-0.359-0.141-0.594-0.469-0.625-0.859-0.016-0.375 0.172-0.734 0.5-0.922l26-15c0.156-0.094 0.328-0.141 0.5-0.141 0.203 0 0.406 0.063 0.562 0.172z"></path>
</symbol>
<symbol id="icon-camera" viewBox="0 0 28 28">
<title>camera</title>
<path d="M14 8.751c-3.867 0-7 3.133-7 7s3.133 7 7 7c3.866 0 7-3.134 7-7s-3.134-7-7-7zM17.986 19.168c-1.886 2.201-5.2 2.456-7.402 0.569s-2.456-5.201-0.569-7.402c1.886-2.202 5.2-2.456 7.402-0.569 2.201 1.886 2.455 5.201 0.569 7.402zM14 12.251c0.242 0 0.438 0.196 0.438 0.438s-0.196 0.438-0.438 0.438c-1.45 0-2.624 1.175-2.625 2.624v0.002c0 0.241-0.196 0.437-0.438 0.437s-0.438-0.197-0.438-0.437v-0.002c0.001-1.932 1.567-3.499 3.5-3.499zM25.806 7.912l-3.792-0.633-1.201-3.005c-0.402-1.002-1.359-1.649-2.437-1.649h-8.75c-1.078 0-2.035 0.648-2.438 1.65l-1.2 3.004-3.791 0.633c-1.272 0.211-2.195 1.299-2.195 2.588v13.125c0 1.447 1.178 2.625 2.625 2.625h22.75c1.447 0 2.625-1.178 2.625-2.625v-13.125c0-1.289-0.923-2.377-2.194-2.588zM26.25 23.625c0 0.484-0.391 0.875-0.875 0.875h-22.75c-0.484 0-0.875-0.391-0.875-0.875v-13.125c0-0.428 0.31-0.793 0.732-0.863l4.763-0.794 1.567-3.918c0.134-0.332 0.455-0.55 0.813-0.55h8.75c0.357 0 0.678 0.218 0.812 0.55l1.567 3.918 4.764 0.794c0.422 0.070 0.731 0.435 0.731 0.863v13.125z"></path>
</symbol>
<symbol id="icon-globe" viewBox="0 0 28 28">
<title>globe</title>
<path d="M13.563 0c-7.491 0-13.563 6.072-13.563 13.563s6.072 13.563 13.563 13.563 13.563-6.072 13.563-13.563-6.072-13.563-13.563-13.563zM25.353 13.125h-5.247c-0.048-1.938-0.393-3.79-1.005-5.485 1.181-0.493 2.273-1.148 3.269-1.922 1.77 1.987 2.877 4.567 2.982 7.407zM13.079 25.351c-1.454-1.211-2.674-2.783-3.566-4.61 1.145-0.358 2.359-0.554 3.613-0.594v5.205c-0.016 0-0.031-0.001-0.046-0.002zM14.045 1.774c1.65 1.374 2.997 3.214 3.908 5.36-1.248 0.426-2.573 0.674-3.953 0.717v-6.080c0.017 0.001 0.031 0.002 0.045 0.003zM15.502 1.923c2.415 0.402 4.582 1.53 6.269 3.162-0.916 0.703-1.917 1.298-3 1.748-0.796-1.887-1.914-3.556-3.269-4.91zM13.125 1.772v6.080c-1.38-0.045-2.706-0.291-3.953-0.717 0.911-2.146 2.258-3.987 3.908-5.36 0.016-0.001 0.030-0.002 0.046-0.003zM8.353 6.835c-1.081-0.451-2.083-1.046-2.999-1.748 1.686-1.633 3.854-2.761 6.268-3.162-1.356 1.354-2.473 3.022-3.27 4.91zM8.842 7.942c1.349 0.468 2.787 0.741 4.283 0.787v4.397h-5.232c0.047-1.832 0.372-3.583 0.948-5.184zM13.125 14v5.272c-1.38 0.042-2.714 0.268-3.972 0.673-0.758-1.804-1.205-3.814-1.26-5.945h5.232zM11.623 25.202c-2.164-0.36-4.129-1.302-5.727-2.671 0.862-0.598 1.794-1.103 2.79-1.488 0.763 1.582 1.761 2.986 2.937 4.158zM14 25.353v-5.205c1.253 0.040 2.468 0.236 3.613 0.594-0.893 1.826-2.112 3.399-3.567 4.61-0.015 0-0.031 0.001-0.046 0.002zM18.44 21.044c0.995 0.384 1.926 0.891 2.79 1.488-1.598 1.368-3.563 2.311-5.727 2.671 1.176-1.172 2.174-2.576 2.937-4.158zM17.972 19.945c-1.258-0.405-2.593-0.631-3.972-0.673v-5.272h5.232c-0.055 2.131-0.503 4.14-1.26 5.945zM14 13.125v-4.397c1.495-0.046 2.933-0.318 4.283-0.786 0.576 1.6 0.9 3.351 0.949 5.184h-5.232zM4.755 5.718c0.996 0.774 2.088 1.43 3.268 1.922-0.612 1.695-0.956 3.546-1.005 5.485h-5.247c0.105-2.839 1.212-5.42 2.983-7.407zM1.772 14h5.247c0.054 2.236 0.521 4.347 1.315 6.245-1.109 0.432-2.142 1.008-3.096 1.69-2.054-2.045-3.351-4.84-3.466-7.934zM21.887 21.934c-0.954-0.681-1.987-1.257-3.097-1.69 0.794-1.898 1.261-4.009 1.316-6.245h5.247c-0.115 3.095-1.412 5.89-3.466 7.934z"></path>
</symbol>
<symbol id="icon-location" viewBox="0 0 28 28">
<title>location</title>
<path d="M14.002 15.528c2.895 0 5.25-2.356 5.25-5.25s-2.355-5.25-5.25-5.25c-2.895 0-5.25 2.355-5.25 5.25s2.355 5.25 5.25 5.25zM14.002 5.903c2.413 0 4.375 1.962 4.375 4.375s-1.962 4.375-4.375 4.375c-2.413 0-4.375-1.962-4.375-4.375s1.962-4.375 4.375-4.375zM14 0c-5.791 0-10.5 4.651-10.5 10.501 0 6.125 5.251 12.391 9.079 16.795 0.014 0.017 0.628 0.704 1.388 0.704 0.002 0 0.064 0 0.067 0 0.759 0 1.374-0.687 1.388-0.704 3.83-4.404 9.080-10.669 9.080-16.795 0-5.849-4.71-10.501-10.502-10.501zM14.102 26.148c-0.018 0.018-0.072 0.056-0.118 0.086-0.009-0.024-0.073-0.075-0.113-0.116-3.207-3.69-8.621-9.917-8.621-15.616 0-4.825 3.926-8.751 8.75-8.751 4.826 0 8.752 3.926 8.752 8.752 0 5.698-5.414 11.925-8.649 15.646z"></path>
</symbol>
<symbol id="icon-search" viewBox="0 0 28 28">
<title>search</title>
<path d="M16.999 17.874c-1.216 0.867-2.704 1.376-4.311 1.376-4.108 0-7.438-3.33-7.438-7.438s3.33-7.438 7.438-7.438c4.108 0 7.438 3.33 7.438 7.438 0 1.607-0.51 3.095-1.376 4.311l4.887 4.887c0.481 0.481 0.477 1.252-0 1.729l-0.021 0.021c-0.476 0.476-1.252 0.478-1.729 0l-4.887-4.887zM12.688 17.5c3.141 0 5.688-2.546 5.688-5.688s-2.546-5.688-5.688-5.688c-3.141 0-5.688 2.546-5.688 5.688s2.546 5.688 5.688 5.688v0z"></path>
</symbol>
</defs>
</svg>
