<?xml version="1.0" standalone="no"?>
<!DOCTYPE svg PUBLIC "-//W3C//DTD SVG 20010904//EN"
 "http://www.w3.org/TR/2001/REC-SVG-20010904/DTD/svg10.dtd">
<svg version="1.0" xmlns="http://www.w3.org/2000/svg"
 width="216.000000pt" height="216.000000pt" viewBox="0 0 216.000000 216.000000"
 preserveAspectRatio="xMidYMid meet">
<metadata>
Created by potrace 1.11, written by Peter Selinger 2001-2013
</metadata>
<g transform="translate(0.000000,216.000000) scale(0.100000,-0.100000)"
fill="#000000" stroke="none">
<path d="M2030 2059 c-19 -5 -48 -11 -63 -14 -81 -16 -130 -56 -428 -356 -229
-230 -299 -295 -303 -282 -3 10 -8 43 -11 73 -3 30 -8 78 -11 105 -8 61 -7
315 0 353 3 15 8 47 11 70 l6 44 -42 -26 c-106 -62 -126 -81 -134 -127 -4 -24
-9 -48 -10 -54 -2 -5 -6 -30 -10 -55 -3 -25 -15 -90 -25 -145 -10 -55 -21
-116 -24 -135 -3 -19 -8 -46 -11 -60 -3 -14 -8 -43 -11 -65 -3 -22 -8 -56 -12
-75 l-8 -34 -21 34 c-44 72 -87 94 -202 105 -45 5 -60 1 -128 -35 l-78 -40
-155 -6 c-85 -4 -168 -8 -185 -9 -16 -2 -52 -3 -79 -4 -27 -1 -47 -3 -45 -5 4
-3 39 -7 194 -21 28 -3 77 -7 109 -10 60 -6 145 -42 213 -92 52 -38 94 -147
118 -309 23 -153 40 -167 323 -269 183 -65 269 -105 300 -138 20 -21 130 -250
163 -338 5 -14 28 -35 50 -47 l40 -22 -5 33 c-3 17 -8 55 -12 82 -3 28 -8 53
-11 58 -2 4 0 7 5 7 5 0 24 -50 42 -110 19 -61 37 -107 41 -103 17 18 16 129
-1 193 -98 356 -114 407 -152 464 -7 11 -27 43 -45 71 l-31 51 170 340 c345
689 416 821 462 862 28 24 54 54 44 51 -2 -1 -19 -5 -38 -10z"/>
</g>
</svg>
